# xmcd
#
# Track frame offsets:
#	150
#	22785
#	43450
#	60885
#	84470
#	104172
#	125525
#	148562
#	168202
#	187840
#	205032
#	236515
#
# Disc length: 3439 seconds
#
# Revision: 5
# Processed by: cddbd v1.5.2PL0 Copyright (c) Steve Scherf et al.
# Submitted via: EasyCDDAExtractor 15.3.0.1
#
DISCID=980d6d0c
DTITLE=Mariah Carey - Butterfly
DYEAR=1997
DGENRE=R&B/Pop
TTITLE0=Honey
TTITLE1=Butterfly
TTITLE2=My All
TTITLE3=The Roof
TTITLE4=Fourth Of July
TTITLE5=Breakdown
TTITLE6=Babydoll
TTITLE7=Close My Eyes
TTITLE8=Whenever You Call
TTITLE9=Fly Away (Butterfly Reprise)
TTITLE10=The Beautiful Ones
TTITLE11=Outside
EXTD=
EXTT0=
EXTT1=
EXTT2=
EXTT3=
EXTT4=
EXTT5=
EXTT6=
EXTT7=
EXTT8=
EXTT9=
EXTT10=
EXTT11=
PLAYORDER=
